<mxfile host="app.diagrams.net" agent="Mozilla/5.0 (Windows NT 10.0; Win64; x64; rv:131.0) Gecko/20100101 Firefox/131.0" version="24.7.17">
  <diagram name="Page-1" id="b5b7bab2-c9e2-2cf4-8b2a-24fd1a2a6d21">
    <mxGraphModel dx="1750" dy="930" grid="1" gridSize="10" guides="1" tooltips="1" connect="1" arrows="1" fold="1" page="1" pageScale="1" pageWidth="827" pageHeight="1169" background="none" math="0" shadow="0">
      <root>
        <mxCell id="0" />
        <mxCell id="1" parent="0" />
        <mxCell id="arcIZvKdXKDP4hSETuBs-35" style="edgeStyle=orthogonalEdgeStyle;rounded=0;orthogonalLoop=1;jettySize=auto;html=1;exitX=0;exitY=0;exitDx=1020;exitDy=200.5;exitPerimeter=0;entryX=0;entryY=0.5;entryDx=0;entryDy=0;" edge="1" parent="1" source="arcIZvKdXKDP4hSETuBs-25" target="arcIZvKdXKDP4hSETuBs-33">
          <mxGeometry relative="1" as="geometry" />
        </mxCell>
        <mxCell id="arcIZvKdXKDP4hSETuBs-25" value="" style="shape=folder;fontStyle=1;spacingTop=10;tabWidth=40;tabHeight=14;tabPosition=left;html=1;whiteSpace=wrap;" vertex="1" parent="1">
          <mxGeometry x="280" y="90" width="1020" height="760" as="geometry" />
        </mxCell>
        <mxCell id="6e0c8c40b5770093-72" value="" style="shape=folder;fontStyle=1;spacingTop=10;tabWidth=194;tabHeight=22;tabPosition=left;html=1;rounded=0;shadow=0;comic=0;labelBackgroundColor=none;strokeWidth=1;fillColor=none;fontFamily=Verdana;fontSize=10;align=center;" parent="1" vertex="1">
          <mxGeometry x="340" y="140" width="500" height="270" as="geometry" />
        </mxCell>
        <mxCell id="6e0c8c40b5770093-73" value="&amp;lt;&amp;lt;model&amp;gt;&amp;gt;" style="text;html=1;align=left;verticalAlign=top;spacingTop=-4;fontSize=10;fontFamily=Verdana" parent="1" vertex="1">
          <mxGeometry x="341" y="140" width="130" height="20" as="geometry" />
        </mxCell>
        <mxCell id="arcIZvKdXKDP4hSETuBs-3" value="&lt;p style=&quot;margin:0px;margin-top:6px;text-align:center;&quot;&gt;&lt;b&gt;Local&lt;/b&gt;&lt;/p&gt;&lt;hr size=&quot;1&quot; style=&quot;border-style:solid;&quot;&gt;&lt;p style=&quot;margin:0px;margin-left:8px;&quot;&gt;+ name: String&lt;br&gt;+ display_name: String&lt;/p&gt;&lt;p style=&quot;margin:0px;margin-left:8px;&quot;&gt;+ lat: f64&lt;/p&gt;&lt;p style=&quot;margin:0px;margin-left:8px;&quot;&gt;+ long: f64&lt;/p&gt;&lt;p style=&quot;margin:0px;margin-left:8px;&quot;&gt;+ img_path: Option&amp;lt;String&amp;gt;&lt;/p&gt;&lt;p style=&quot;margin:0px;margin-left:8px;&quot;&gt;+ description: Option&amp;lt;String&amp;gt;&lt;/p&gt;&lt;p style=&quot;margin:0px;margin-left:8px;&quot;&gt;+ ty: Option&amp;lt;String&amp;gt;&lt;br&gt;&lt;/p&gt;&lt;p style=&quot;margin:0px;margin-left:8px;&quot;&gt;&lt;br&gt;&lt;/p&gt;" style="align=left;overflow=fill;html=1;dropTarget=0;whiteSpace=wrap;" vertex="1" parent="1">
          <mxGeometry x="370" y="205" width="190" height="140" as="geometry" />
        </mxCell>
        <mxCell id="arcIZvKdXKDP4hSETuBs-4" value="" style="shape=component;jettyWidth=8;jettyHeight=4;" vertex="1" parent="arcIZvKdXKDP4hSETuBs-3">
          <mxGeometry x="1" width="20" height="20" relative="1" as="geometry">
            <mxPoint x="-24" y="4" as="offset" />
          </mxGeometry>
        </mxCell>
        <mxCell id="arcIZvKdXKDP4hSETuBs-5" value="&lt;p style=&quot;margin:0px;margin-top:6px;text-align:center;&quot;&gt;&lt;b&gt;Point&lt;/b&gt;&lt;/p&gt;&lt;hr size=&quot;1&quot; style=&quot;border-style:solid;&quot;&gt;&lt;p style=&quot;margin:0px;margin-left:8px;&quot;&gt;+ x: f64&lt;br&gt;+ y: f64&lt;/p&gt;&lt;br&gt;&lt;p style=&quot;margin:0px;margin-left:8px;&quot;&gt;&lt;br&gt;&lt;/p&gt;" style="align=left;overflow=fill;html=1;dropTarget=0;whiteSpace=wrap;" vertex="1" parent="1">
          <mxGeometry x="600" y="205" width="180" height="70" as="geometry" />
        </mxCell>
        <mxCell id="arcIZvKdXKDP4hSETuBs-6" value="" style="shape=component;jettyWidth=8;jettyHeight=4;" vertex="1" parent="arcIZvKdXKDP4hSETuBs-5">
          <mxGeometry x="1" width="20" height="20" relative="1" as="geometry">
            <mxPoint x="-24" y="4" as="offset" />
          </mxGeometry>
        </mxCell>
        <mxCell id="arcIZvKdXKDP4hSETuBs-7" value="&lt;p style=&quot;margin:0px;margin-top:6px;text-align:center;&quot;&gt;&lt;b&gt;AppState&lt;/b&gt;&lt;/p&gt;&lt;hr size=&quot;1&quot; style=&quot;border-style:solid;&quot;&gt;&lt;p style=&quot;margin:0px;margin-left:8px;&quot;&gt;+ db: Pool&amp;lt;Postgres&amp;gt;&lt;br&gt;&lt;/p&gt;&lt;br&gt;&lt;p style=&quot;margin:0px;margin-left:8px;&quot;&gt;&lt;br&gt;&lt;/p&gt;" style="align=left;overflow=fill;html=1;dropTarget=0;whiteSpace=wrap;" vertex="1" parent="1">
          <mxGeometry x="600" y="310" width="180" height="60" as="geometry" />
        </mxCell>
        <mxCell id="arcIZvKdXKDP4hSETuBs-8" value="" style="shape=component;jettyWidth=8;jettyHeight=4;" vertex="1" parent="arcIZvKdXKDP4hSETuBs-7">
          <mxGeometry x="1" width="20" height="20" relative="1" as="geometry">
            <mxPoint x="-24" y="4" as="offset" />
          </mxGeometry>
        </mxCell>
        <mxCell id="arcIZvKdXKDP4hSETuBs-9" value="" style="shape=folder;fontStyle=1;spacingTop=10;tabWidth=194;tabHeight=22;tabPosition=left;html=1;rounded=0;shadow=0;comic=0;labelBackgroundColor=none;strokeWidth=1;fillColor=none;fontFamily=Verdana;fontSize=10;align=center;" vertex="1" parent="1">
          <mxGeometry x="341" y="480" width="500" height="330" as="geometry" />
        </mxCell>
        <mxCell id="arcIZvKdXKDP4hSETuBs-10" value="&amp;lt;&amp;lt;service&amp;gt;&amp;gt;" style="text;html=1;align=left;verticalAlign=top;spacingTop=-4;fontSize=10;fontFamily=Verdana" vertex="1" parent="1">
          <mxGeometry x="341" y="480" width="130" height="20" as="geometry" />
        </mxCell>
        <mxCell id="arcIZvKdXKDP4hSETuBs-18" value="&lt;p style=&quot;margin:0px;margin-top:6px;text-align:center;&quot;&gt;&lt;b&gt;ReverseRequest&lt;/b&gt;&lt;/p&gt;&lt;hr size=&quot;1&quot; style=&quot;border-style:solid;&quot;&gt;&lt;p style=&quot;margin:0px;margin-left:8px;&quot;&gt;+ lat: f64&lt;br&gt;+ long: f64&lt;/p&gt;" style="align=left;overflow=fill;html=1;dropTarget=0;whiteSpace=wrap;" vertex="1" parent="1">
          <mxGeometry x="380" y="530" width="180" height="70" as="geometry" />
        </mxCell>
        <mxCell id="arcIZvKdXKDP4hSETuBs-19" value="" style="shape=component;jettyWidth=8;jettyHeight=4;" vertex="1" parent="arcIZvKdXKDP4hSETuBs-18">
          <mxGeometry x="1" width="20" height="20" relative="1" as="geometry">
            <mxPoint x="-24" y="4" as="offset" />
          </mxGeometry>
        </mxCell>
        <mxCell id="arcIZvKdXKDP4hSETuBs-20" value="&lt;p style=&quot;margin:0px;margin-top:6px;text-align:center;&quot;&gt;&lt;b&gt;Request&lt;/b&gt;&lt;/p&gt;&lt;hr size=&quot;1&quot; style=&quot;border-style:solid;&quot;&gt;&lt;p style=&quot;margin:0px;margin-left:8px;&quot;&gt;+ name: String&lt;br&gt;&lt;br&gt;&lt;/p&gt;" style="align=left;overflow=fill;html=1;dropTarget=0;whiteSpace=wrap;" vertex="1" parent="1">
          <mxGeometry x="613.5" y="530" width="180" height="60" as="geometry" />
        </mxCell>
        <mxCell id="arcIZvKdXKDP4hSETuBs-21" value="" style="shape=component;jettyWidth=8;jettyHeight=4;" vertex="1" parent="arcIZvKdXKDP4hSETuBs-20">
          <mxGeometry x="1" width="20" height="20" relative="1" as="geometry">
            <mxPoint x="-24" y="4" as="offset" />
          </mxGeometry>
        </mxCell>
        <mxCell id="arcIZvKdXKDP4hSETuBs-23" value="&lt;p style=&quot;margin:0px;margin-top:4px;text-align:center;&quot;&gt;&lt;i&gt;&amp;lt;&amp;lt;Interface&amp;gt;&amp;gt;&lt;/i&gt;&lt;/p&gt;&lt;p style=&quot;margin:0px;margin-top:4px;text-align:center;&quot;&gt;&lt;b&gt;Service&lt;/b&gt;&lt;br&gt;&lt;/p&gt;&lt;hr size=&quot;1&quot; style=&quot;border-style:solid;&quot;&gt;&lt;p style=&quot;margin:0px;margin-left:4px;&quot;&gt;+ state: AppState&lt;br&gt;&lt;/p&gt;&lt;hr size=&quot;1&quot; style=&quot;border-style:solid;&quot;&gt;&lt;p style=&quot;margin:0px;margin-left:4px;&quot;&gt;+ get_local(Request): HttpResponse&lt;br&gt;+ get_local_category(Request): HttpResponse&lt;/p&gt;&lt;p style=&quot;margin:0px;margin-left:4px;&quot;&gt;+ get_reverse_search(ReverseRequest): HttpResponse&lt;br&gt;&lt;/p&gt;" style="verticalAlign=top;align=left;overflow=fill;html=1;whiteSpace=wrap;" vertex="1" parent="1">
          <mxGeometry x="380" y="640" width="300" height="140" as="geometry" />
        </mxCell>
        <mxCell id="arcIZvKdXKDP4hSETuBs-27" value="&lt;div&gt;«component»&lt;/div&gt;&lt;div&gt;&lt;b&gt;main&lt;/b&gt;&lt;br&gt;&lt;/div&gt;" style="html=1;dropTarget=0;whiteSpace=wrap;" vertex="1" parent="1">
          <mxGeometry x="1090" y="380" width="180" height="90" as="geometry" />
        </mxCell>
        <mxCell id="arcIZvKdXKDP4hSETuBs-28" value="" style="shape=module;jettyWidth=8;jettyHeight=4;" vertex="1" parent="arcIZvKdXKDP4hSETuBs-27">
          <mxGeometry x="1" width="20" height="20" relative="1" as="geometry">
            <mxPoint x="-27" y="7" as="offset" />
          </mxGeometry>
        </mxCell>
        <mxCell id="arcIZvKdXKDP4hSETuBs-30" style="edgeStyle=orthogonalEdgeStyle;rounded=0;orthogonalLoop=1;jettySize=auto;html=1;exitX=0;exitY=0.5;exitDx=0;exitDy=0;entryX=0;entryY=0;entryDx=500;entryDy=146;entryPerimeter=0;" edge="1" parent="1" source="arcIZvKdXKDP4hSETuBs-27" target="6e0c8c40b5770093-72">
          <mxGeometry relative="1" as="geometry" />
        </mxCell>
        <mxCell id="arcIZvKdXKDP4hSETuBs-31" style="edgeStyle=orthogonalEdgeStyle;rounded=0;orthogonalLoop=1;jettySize=auto;html=1;exitX=0;exitY=0;exitDx=347;exitDy=22;exitPerimeter=0;entryX=0.75;entryY=1;entryDx=0;entryDy=0;entryPerimeter=0;" edge="1" parent="1" source="arcIZvKdXKDP4hSETuBs-9" target="6e0c8c40b5770093-72">
          <mxGeometry relative="1" as="geometry" />
        </mxCell>
        <mxCell id="arcIZvKdXKDP4hSETuBs-32" style="edgeStyle=orthogonalEdgeStyle;rounded=0;orthogonalLoop=1;jettySize=auto;html=1;exitX=0.25;exitY=1;exitDx=0;exitDy=0;entryX=0;entryY=0;entryDx=500;entryDy=99;entryPerimeter=0;" edge="1" parent="1" source="arcIZvKdXKDP4hSETuBs-27" target="arcIZvKdXKDP4hSETuBs-9">
          <mxGeometry relative="1" as="geometry" />
        </mxCell>
        <mxCell id="arcIZvKdXKDP4hSETuBs-33" value="&lt;div&gt;«database»&lt;/div&gt;&lt;div&gt;&lt;b&gt;locais&lt;/b&gt;&lt;br&gt;&lt;/div&gt;" style="html=1;dropTarget=0;whiteSpace=wrap;" vertex="1" parent="1">
          <mxGeometry x="1420" y="275" width="180" height="90" as="geometry" />
        </mxCell>
        <mxCell id="arcIZvKdXKDP4hSETuBs-34" value="" style="shape=module;jettyWidth=8;jettyHeight=4;" vertex="1" parent="arcIZvKdXKDP4hSETuBs-33">
          <mxGeometry x="1" width="20" height="20" relative="1" as="geometry">
            <mxPoint x="-27" y="7" as="offset" />
          </mxGeometry>
        </mxCell>
      </root>
    </mxGraphModel>
  </diagram>
</mxfile>
